<svg xmlns="http://www.w3.org/2000/svg" version="1.1" xmlns:xlink="http://www.w3.org/1999/xlink" xmlns:svgjs="http://svgjs.dev/svgjs" width="1000" height="1000" viewBox="0 0 1000 1000"><rect width="1000" height="1000" fill="#102e44"></rect><g transform="matrix(0.7,0,0,0.7,149.57575757575756,389.8695328536504)"><svg viewBox="0 0 396 125" data-background-color="#102e44" preserveAspectRatio="xMidYMid meet" height="315" width="1000" xmlns="http://www.w3.org/2000/svg" xmlns:xlink="http://www.w3.org/1999/xlink"><g id="tight-bounds" transform="matrix(1,0,0,1,0.2400000000000091,-0.06776238869070994)"><svg viewBox="0 0 395.52 125.13552477738142" height="125.13552477738142" width="395.52"><g><svg viewBox="0 0 613.4062456986094 194.07087494240204" height="125.13552477738142" width="395.52"><g transform="matrix(1,0,0,1,0,26.821662166424602)"><svg viewBox="0 0 395.52000000000004 140.42755060955284" height="140.42755060955284" width="395.52000000000004"><g><svg viewBox="0 0 395.52000000000004 140.42755060955284" height="140.42755060955284" width="395.52000000000004"><g><svg viewBox="0 0 395.52000000000004 100.88010113780027" height="100.88010113780027" width="395.52000000000004"><g transform="matrix(1,0,0,1,0,0)"><svg width="395.52000000000004" viewBox="3.799999952316284 -36 158.19000244140625 40.349998474121094" height="100.88010113780027" data-palette-color="#0074d9"><path d="M11.65 4.35L11.65 4.35Q8.9 4.35 7.85 3.28 6.8 2.2 6.75 0.5L6.75 0.5Q6.75-0.95 7.33-2.98 7.9-5 8.5-6.85L8.5-6.85Q9.7-10.4 11-13.85 12.3-17.3 13.63-20.5 14.95-23.7 16.18-26.6 17.4-29.5 18.45-31.95L18.45-31.95Q15.05-31.9 12.58-31.75 10.1-31.6 8.05-31.38 6-31.15 3.8-30.75L3.8-30.75Q4.05-32.85 5.78-33.98 7.5-35.1 10.4-35.55 13.3-36 17.05-36L17.05-36Q19-36 20.73-35.93 22.45-35.85 24.03-35.7 25.6-35.55 27.1-35.4L27.1-35.4Q30.25-35.1 32.13-35 34-34.9 34.8-34.9L34.8-34.9Q33.3-33.5 31.03-32.88 28.75-32.25 26.25-32.1 23.75-31.95 21.5-31.95L21.5-31.95Q19.1-26.05 17.1-19.7 15.1-13.35 13.4-7.15L13.4-7.15Q12.75-4.75 12.33-3.08 11.9-1.4 11.7-0.03 11.5 1.35 11.5 2.9L11.5 2.9Q11.5 3.15 11.53 3.48 11.55 3.8 11.65 4.35ZM24.8 1.6L24.8 1.6Q22.55 1.6 21.72 0.13 20.9-1.35 20.9-3.1L20.9-3.1Q20.9-4.7 21.4-6.38 21.9-8.05 22.77-9.5 23.65-10.95 24.72-11.83 25.8-12.7 26.9-12.7L26.9-12.7Q27.25-12.7 27.72-12.58 28.2-12.45 28.4-12.2L28.4-12.2Q27.8-11.45 27.17-10.35 26.55-9.25 26.02-8.03 25.5-6.8 25.2-5.55 24.9-4.3 24.9-3.25L24.9-3.25Q24.9-2.25 25.27-1.6 25.65-0.95 26.6-0.95L26.6-0.95Q27.55-0.95 28.87-2.02 30.2-3.1 31.4-4.5L31.4-4.5Q29.8-5.95 29.1-7.68 28.4-9.4 28.4-11.85L28.4-11.85Q28.4-12.9 28.92-14.25 29.45-15.6 30.62-16.6 31.8-17.6 33.8-17.6L33.8-17.6Q35.95-17.6 36.82-16.4 37.7-15.2 37.7-13.55L37.7-13.55Q37.7-11.7 36.72-9.4 35.75-7.1 34.4-5.05L34.4-5.05Q35-4.75 35.8-4.75L35.8-4.75Q36.55-4.75 37.6-5.1 38.65-5.45 39.65-6.28 40.65-7.1 41.25-8.5L41.25-8.5 42.15-7.85Q41.05-5.3 39.22-4.13 37.4-2.95 35.65-2.95L35.65-2.95Q35-2.95 34.35-3.08 33.7-3.2 33.15-3.4L33.15-3.4Q31.45-1.4 29.25 0.1 27.05 1.6 24.8 1.6ZM32.7-6.1L32.7-6.1Q33.9-7.85 34.75-9.85 35.6-11.85 35.6-13.55L35.6-13.55Q35.6-14.7 35.25-15.23 34.9-15.75 34.2-15.75L34.2-15.75Q33.25-15.75 32.25-14.4 31.25-13.05 31.25-11L31.25-11Q31.25-9.95 31.62-8.45 32-6.95 32.7-6.1ZM43.55 1.5L43.55 1.5Q42.59 1.5 41.62 1.03 40.64 0.55 39.97-0.45 39.3-1.45 39.3-3L39.3-3Q39.3-4.65 40.09-6.7 40.89-8.75 42.27-10.8 43.64-12.85 45.47-14.55 47.3-16.25 49.34-17.3 51.39-18.35 53.49-18.35L53.49-18.35Q54.64-18.35 55.3-17.98 55.95-17.6 55.95-16.75L55.95-16.75Q55.95-16.5 55.84-16.18 55.74-15.85 55.34-15.6L55.34-15.6Q55.14-15.9 54.64-16.03 54.14-16.15 53.59-16.15L53.59-16.15Q51.95-16.15 50.45-15.23 48.95-14.3 47.7-12.85 46.45-11.4 45.52-9.7 44.59-8 44.09-6.43 43.59-4.85 43.59-3.7L43.59-3.7Q43.59-2.75 43.99-2.18 44.39-1.6 45.2-1.6L45.2-1.6Q46.55-1.6 48.42-3.18 50.3-4.75 52.27-7.73 54.24-10.7 55.84-14.85L55.84-14.85Q56.95-17.7 58.14-20.68 59.34-23.65 60.55-26.4 61.75-29.15 62.92-31.3 64.09-33.45 65.17-34.73 66.25-36 67.14-36L67.14-36Q67.69-36 68.12-35.58 68.55-35.15 68.55-34.5L68.55-34.5Q68.55-33.65 67.72-31.78 66.89-29.9 65.62-27.3 64.34-24.7 62.87-21.68 61.39-18.65 60.12-15.48 58.84-12.3 58.02-9.22 57.2-6.15 57.2-3.45L57.2-3.45Q57.2-2.25 57.42-1.83 57.64-1.4 58.2-1.4L58.2-1.4Q59.3-1.4 60.64-2.25 62-3.1 63.39-4.78 64.8-6.45 65.94-8.8L65.94-8.8 66.89-8Q65.8-5.25 64.09-3.15 62.39-1.05 60.45 0.13 58.5 1.3 56.59 1.3L56.59 1.3Q54.55 1.3 53.74 0 52.95-1.3 52.95-3.05L52.95-3.05Q52.95-3.85 53.07-4.67 53.2-5.5 53.34-6.3L53.34-6.3Q51.8-4.05 50.07-2.27 48.34-0.5 46.7 0.5 45.05 1.5 43.55 1.5ZM67.94 1.6L67.94 1.6Q65.69 1.6 64.87 0.13 64.04-1.35 64.04-3.1L64.04-3.1Q64.04-4.7 64.54-6.38 65.04-8.05 65.92-9.5 66.79-10.95 67.87-11.83 68.94-12.7 70.04-12.7L70.04-12.7Q70.39-12.7 70.87-12.58 71.34-12.45 71.54-12.2L71.54-12.2Q70.94-11.45 70.32-10.35 69.69-9.25 69.17-8.03 68.64-6.8 68.34-5.55 68.04-4.3 68.04-3.25L68.04-3.25Q68.04-2.25 68.42-1.6 68.79-0.95 69.74-0.95L69.74-0.95Q70.69-0.95 72.02-2.02 73.34-3.1 74.54-4.5L74.54-4.5Q72.94-5.95 72.24-7.68 71.54-9.4 71.54-11.85L71.54-11.85Q71.54-12.9 72.07-14.25 72.59-15.6 73.77-16.6 74.94-17.6 76.94-17.6L76.94-17.6Q79.09-17.6 79.97-16.4 80.84-15.2 80.84-13.55L80.84-13.55Q80.84-11.7 79.87-9.4 78.89-7.1 77.54-5.05L77.54-5.05Q78.14-4.75 78.94-4.75L78.94-4.75Q79.69-4.75 80.74-5.1 81.79-5.45 82.79-6.28 83.79-7.1 84.39-8.5L84.39-8.5 85.29-7.85Q84.19-5.3 82.37-4.13 80.54-2.95 78.79-2.95L78.79-2.95Q78.14-2.95 77.49-3.08 76.84-3.2 76.29-3.4L76.29-3.4Q74.59-1.4 72.39 0.1 70.19 1.6 67.94 1.6ZM75.84-6.1L75.84-6.1Q77.04-7.85 77.89-9.85 78.74-11.85 78.74-13.55L78.74-13.55Q78.74-14.7 78.39-15.23 78.04-15.75 77.34-15.75L77.34-15.75Q76.39-15.75 75.39-14.4 74.39-13.05 74.39-11L74.39-11Q74.39-9.95 74.77-8.45 75.14-6.95 75.84-6.1ZM109.39 1.55L109.39 1.55Q107.44 1.55 106.49 0.4 105.54-0.75 105.54-2.35L105.54-2.35Q105.54-3.5 105.89-4.65 106.24-5.8 106.59-6.93 106.94-8.05 106.94-8.95L106.94-8.95Q106.94-9.8 106.62-10.13 106.29-10.45 105.79-10.45L105.79-10.45Q104.64-10.45 103.12-8.7 101.59-6.95 99.34-3.6L99.34-3.6Q98.54-2.4 97.84-1.07 97.14 0.25 96.59 1.15L96.59 1.15Q96.14 1.15 95.42 1 94.69 0.85 94.14 0.58 93.59 0.3 93.59-0.15L93.59-0.15Q93.59-0.6 94.09-1.9 94.59-3.2 95.24-4.93 95.89-6.65 96.39-8.33 96.89-10 96.89-11.15L96.89-11.15Q96.89-11.85 96.64-12.25 96.39-12.65 95.84-12.65L95.84-12.65Q94.79-12.65 93.32-11.4 91.84-10.15 90.22-8.13 88.59-6.1 87.17-3.63 85.74-1.15 84.84 1.35L84.84 1.35Q84.29 1.35 83.49 1.13 82.69 0.9 82.09 0.58 81.49 0.25 81.49 0L81.49 0Q81.49-0.05 81.84-1.43 82.19-2.8 82.69-4.85 83.19-6.9 83.74-9.05 84.29-11.2 84.69-12.8L84.69-12.8Q84.84-13.35 85.79-13.78 86.74-14.2 87.44-14.2L87.44-14.2Q88.14-14.2 88.64-13.75 89.14-13.3 89.14-12.55L89.14-12.55Q89.14-12.05 88.94-11.1 88.74-10.15 88.44-8.95L88.44-8.95Q89.49-10.35 90.67-11.73 91.84-13.1 93.12-14.2 94.39-15.3 95.67-15.95 96.94-16.6 98.19-16.6L98.19-16.6Q100.04-16.6 100.69-15.28 101.34-13.95 101.34-12.4L101.34-12.4Q101.34-11.75 101.24-11.13 101.14-10.5 100.97-9.88 100.79-9.25 100.49-8.4L100.49-8.4Q101.44-9.8 102.57-10.98 103.69-12.15 104.99-12.85 106.29-13.55 107.74-13.55L107.74-13.55Q109.69-13.55 110.44-12.38 111.19-11.2 111.19-9.8L111.19-9.8Q111.19-8.5 110.77-7.08 110.34-5.65 109.92-4.38 109.49-3.1 109.49-2.2L109.49-2.2Q109.49-1.7 109.74-1.28 109.99-0.85 110.74-0.85L110.74-0.85Q112.09-0.85 113.34-2.1 114.59-3.35 115.67-5.18 116.74-7 117.49-8.65L117.49-8.65 118.34-7.6Q117.54-5.55 116.27-3.43 114.99-1.3 113.29 0.13 111.59 1.55 109.39 1.55ZM119.04 2.35L119.04 2.35Q117.39 2.35 116.16 1.25 114.94 0.15 114.94-2.05L114.94-2.05Q114.94-3.8 115.74-5.85 116.54-7.9 117.94-9.9 119.34-11.9 121.14-13.53 122.94-15.15 124.99-16.15 127.04-17.15 129.09-17.15L129.09-17.15Q131.24-17.15 132.74-16.05 134.24-14.95 134.24-13.15L134.24-13.15Q134.24-11.8 133.29-11.2 132.34-10.6 131.04-10.85L131.04-10.85Q131.14-11.3 131.21-11.75 131.29-12.2 131.29-12.7L131.29-12.7Q131.29-13.7 130.89-14.5 130.49-15.3 129.19-15.3L129.19-15.3Q127.79-15.3 126.34-14.35 124.89-13.4 123.56-11.88 122.24-10.35 121.19-8.53 120.14-6.7 119.54-4.95 118.94-3.2 118.94-1.8L118.94-1.8Q118.94-0.2 120.09-0.2L120.09-0.2Q121.24-0.2 122.64-1.33 124.04-2.45 125.46-4.15 126.89-5.85 128.19-7.63 129.49-9.4 130.44-10.65L130.44-10.65Q130.59-10.9 130.84-10.9L130.84-10.9Q131.04-10.85 131.61-10.68 132.19-10.5 132.69-10.15 133.19-9.8 133.19-9.25L133.19-9.25Q133.19-8.75 132.76-7.98 132.34-7.2 131.76-6.28 131.19-5.35 130.76-4.42 130.34-3.5 130.34-2.65L130.34-2.65Q130.34-2 130.69-1.43 131.04-0.85 131.84-0.85L131.84-0.85Q133.04-0.85 135.21-2.63 137.39-4.4 139.64-8.65L139.64-8.65 140.59-7.7Q139.39-5 137.71-2.93 136.04-0.85 134.19 0.33 132.34 1.5 130.44 1.5L130.44 1.5Q128.39 1.5 127.39 0.2 126.39-1.1 126.29-2.6L126.29-2.6Q126.29-2.7 126.29-2.75 126.29-2.8 126.29-2.85L126.29-2.85Q124.29-0.45 122.61 0.95 120.94 2.35 119.04 2.35ZM141.19 2.95L141.19 2.95Q140.74 2.95 140.51 2.6 140.28 2.25 140.28 1.95L140.28 1.95Q140.28 1.25 141.34-0.28 142.38-1.8 144.09-3.8 145.78-5.8 147.74-7.9L147.74-7.9Q147.38-10.35 146.99-11.65 146.59-12.95 145.49-12.95L145.49-12.95Q144.38-12.95 143.44-11.83 142.49-10.7 141.59-9.05 140.69-7.4 139.69-5.8L139.69-5.8 138.84-7.2Q139.53-8.45 140.16-9.88 140.78-11.3 141.56-12.6 142.34-13.9 143.49-14.73 144.63-15.55 146.38-15.55L146.38-15.55Q148.38-15.55 149.41-14.4 150.44-13.25 150.99-11.3L150.99-11.3Q153.24-13.55 155.09-15.08 156.94-16.6 157.63-16.6L157.63-16.6Q157.94-16.6 158.49-16.3 159.03-16 159.28-15.3L159.28-15.3Q158.63-15.3 157.41-14.43 156.19-13.55 154.61-12.08 153.03-10.6 151.38-8.75L151.38-8.75Q151.53-8.05 151.66-6.8 151.78-5.55 152.03-4.23 152.28-2.9 152.81-2 153.34-1.1 154.24-1.1L154.24-1.1Q155.09-1.1 156.09-1.85 157.09-2.6 158.06-3.78 159.03-4.95 159.86-6.23 160.69-7.5 161.19-8.55L161.19-8.55 161.99-7.8Q161.13-5.55 159.66-3.45 158.19-1.35 156.38 0 154.59 1.35 152.69 1.35L152.69 1.35Q151.13 1.35 150.24 0.43 149.34-0.5 148.86-1.9 148.38-3.3 148.13-4.8L148.13-4.8Q146.13-2.55 144.51-0.58 142.88 1.4 142.03 2.5L142.03 2.5Q141.69 2.95 141.19 2.95Z" opacity="1" transform="matrix(1,0,0,1,0,0)" fill="#0074d9" class="undefined-text-0" data-fill-palette-color="primary" id="text-0"></path></svg></g></svg></g><g transform="matrix(1,0,0,1,163.31020800000002,124.6954718940076)"><svg viewBox="0 0 232.20979200000002 15.732078715545246" height="15.732078715545246" width="232.20979200000002"><g transform="matrix(1,0,0,1,0,0)"><svg width="232.20979200000002" viewBox="5.420000076293945 -38.66999816894531 578.7000122070312 39.209999084472656" height="15.732078715545246" data-palette-color="#0074d9"><path d="M5.42 0L5.42-38.16 19.41-38.16Q25.54-38.16 30.05-36.84 34.57-35.52 37.54-33.07 40.5-30.62 41.96-27.11 43.41-23.61 43.41-19.24L43.41-19.24Q43.41-15.09 41.97-11.56 40.53-8.03 37.57-5.46 34.62-2.88 30.1-1.43 25.59 0.02 19.46 0.02L19.46 0.02 5.42 0ZM13.16-6.69L21.31-6.69Q24.78-6.69 27.39-7.58 30-8.47 31.75-10.11 33.5-11.74 34.38-14.06 35.25-16.38 35.25-19.24L35.25-19.24Q35.25-22.05 34.38-24.3 33.5-26.56 31.75-28.14 30-29.71 27.39-30.57 24.78-31.42 21.31-31.42L21.31-31.42 13.16-31.42 13.16-6.69ZM48.92-19.19L48.92-19.19Q48.92-23.51 50.51-27.1 52.1-30.69 54.97-33.26 57.83-35.84 61.85-37.26 65.87-38.67 70.75-38.67L70.75-38.67Q75.61-38.67 79.64-37.26 83.66-35.84 86.53-33.26 89.4-30.69 90.99-27.1 92.58-23.51 92.58-19.19L92.58-19.19Q92.58-14.84 90.99-11.22 89.4-7.59 86.53-4.98 83.66-2.37 79.64-0.92 75.61 0.54 70.75 0.54L70.75 0.54Q65.87 0.54 61.85-0.92 57.83-2.37 54.97-4.98 52.1-7.59 50.51-11.22 48.92-14.84 48.92-19.19ZM56.66-19.19L56.66-19.19Q56.66-16.24 57.72-13.87 58.79-11.5 60.68-9.83 62.57-8.15 65.15-7.25 67.72-6.35 70.75-6.35L70.75-6.35Q73.78-6.35 76.35-7.25 78.93-8.15 80.81-9.83 82.69-11.5 83.76-13.87 84.84-16.24 84.84-19.19L84.84-19.19Q84.84-22.14 83.76-24.49 82.69-26.83 80.81-28.45 78.93-30.08 76.35-30.93 73.78-31.79 70.75-31.79L70.75-31.79Q67.72-31.79 65.15-30.93 62.57-30.08 60.68-28.45 58.79-26.83 57.72-24.49 56.66-22.14 56.66-19.19ZM101.12 0L101.12-38.16 108.86-38.16 132.64-25.71 132.64-38.16 140.38-38.16 140.38 0 132.64 0 132.64-17.5 108.86-29.88 108.86 0 101.12 0ZM151.16 0L151.16-38.16 183.66-38.16 183.66-31.37 158.9-31.37 158.9-23.75 180.83-23.75 180.83-17.38 158.9-17.38 158.9-6.76 184.17-6.76 184.17 0 151.16 0ZM221.06 0L221.06-9.45 204.38-38.16 213.15-38.16 224.89-16.46 236.49-38.16 245.25-38.16 228.8-9.5 228.8 0 221.06 0ZM248.86-19.19L248.86-19.19Q248.86-23.51 250.45-27.1 252.04-30.69 254.9-33.26 257.77-35.84 261.79-37.26 265.81-38.67 270.69-38.67L270.69-38.67Q275.55-38.67 279.57-37.26 283.6-35.84 286.47-33.26 289.34-30.69 290.93-27.1 292.51-23.51 292.51-19.19L292.51-19.19Q292.51-14.84 290.93-11.22 289.34-7.59 286.47-4.98 283.6-2.37 279.57-0.92 275.55 0.54 270.69 0.54L270.69 0.54Q265.81 0.54 261.79-0.92 257.77-2.37 254.9-4.98 252.04-7.59 250.45-11.22 248.86-14.84 248.86-19.19ZM256.6-19.19L256.6-19.19Q256.6-16.24 257.66-13.87 258.73-11.5 260.62-9.83 262.51-8.15 265.09-7.25 267.66-6.35 270.69-6.35L270.69-6.35Q273.72-6.35 276.29-7.25 278.87-8.15 280.75-9.83 282.63-11.5 283.7-13.87 284.78-16.24 284.78-19.19L284.78-19.19Q284.78-22.14 283.7-24.49 282.63-26.83 280.75-28.45 278.87-30.08 276.29-30.93 273.72-31.79 270.69-31.79L270.69-31.79Q267.66-31.79 265.09-30.93 262.51-30.08 260.62-28.45 258.73-26.83 257.66-24.49 256.6-22.14 256.6-19.19ZM299.67-16.21L299.67-38.16 307.4-38.16 307.4-17.14Q307.4-14.55 308.11-12.54 308.82-10.52 310.22-9.13 311.63-7.74 313.7-7.02 315.78-6.3 318.54-6.3L318.54-6.3Q321.27-6.3 323.36-7.02 325.45-7.74 326.85-9.13 328.25-10.52 328.96-12.54 329.67-14.55 329.67-17.14L329.67-17.14 329.67-38.16 337.41-38.16 337.41-16.21Q337.41-12.45 336.14-9.38 334.87-6.3 332.45-4.1 330.04-1.9 326.53-0.71 323.03 0.49 318.54 0.49L318.54 0.49Q314.05 0.49 310.54-0.71 307.04-1.9 304.62-4.1 302.2-6.3 300.93-9.38 299.67-12.45 299.67-16.21L299.67-16.21ZM346.83 0L346.83-38.16 366.24-38.16Q370.63-38.16 373.86-37.24 377.08-36.33 379.2-34.59 381.33-32.86 382.37-30.37 383.4-27.88 383.4-24.73L383.4-24.73Q383.4-22.61 382.89-20.69 382.38-18.77 381.32-17.16 380.25-15.55 378.64-14.29 377.03-13.04 374.86-12.21L374.86-12.21 383.16 0 373.69 0 366.51-10.84 366.29-10.84 354.57-10.86 354.57 0 346.83 0ZM354.57-17.55L366.44-17.55Q368.63-17.55 370.28-18.07 371.93-18.58 373.04-19.51 374.15-20.43 374.7-21.77 375.25-23.1 375.25-24.73L375.25-24.73Q375.25-27.93 373.05-29.68 370.85-31.42 366.44-31.42L366.44-31.42 354.57-31.42 354.57-17.55ZM420.65 0L420.65-31.37 406.57-31.37 406.57-38.16 442.48-38.16 442.48-31.37 428.39-31.37 428.39 0 420.65 0ZM445.82 0L463.74-38.16 471.95-38.16 490.4 0 482.27 0 479.22-6.42 456.93-6.42 453.98 0 445.82 0ZM459.88-12.79L476.17-12.79 467.92-30.13 459.88-12.79ZM493.99-5.08L498.11-11.35Q500.19-10.18 502.33-9.24 504.46-8.3 506.76-7.65 509.05-7.01 511.58-6.67 514.11-6.32 516.96-6.32L516.96-6.32Q520.4-6.32 522.82-6.77 525.24-7.23 526.76-8.02 528.29-8.81 528.99-9.91 529.68-11.01 529.68-12.3L529.68-12.3Q529.68-14.38 527.95-15.59 526.22-16.8 522.6-16.8L522.6-16.8Q521.01-16.8 519.26-16.59 517.5-16.38 515.7-16.14 513.91-15.89 512.16-15.69 510.42-15.48 508.88-15.48L508.88-15.48Q506.32-15.48 503.96-16.14 501.61-16.8 499.79-18.12 497.97-19.43 496.89-21.41 495.82-23.39 495.82-26.03L495.82-26.03Q495.82-27.59 496.25-29.13 496.67-30.66 497.61-32.07 498.55-33.47 500.04-34.68 501.53-35.89 503.64-36.77 505.76-37.65 508.53-38.15 511.3-38.65 514.84-38.65L514.84-38.65Q517.4-38.65 519.99-38.37 522.58-38.09 525.03-37.57 527.48-37.06 529.76-36.34 532.03-35.62 533.98-34.74L533.98-34.74 530.59-28.49Q528.97-29.2 527.12-29.8 525.26-30.4 523.24-30.83 521.21-31.27 519.05-31.53 516.89-31.79 514.64-31.79L514.64-31.79Q511.44-31.79 509.38-31.32 507.32-30.86 506.1-30.14 504.88-29.42 504.4-28.53 503.93-27.64 503.93-26.76L503.93-26.76Q503.93-25.05 505.46-23.96 507-22.88 510.15-22.88L510.15-22.88Q511.42-22.88 513.07-23.06 514.72-23.24 516.53-23.46 518.35-23.68 520.25-23.86 522.14-24.05 523.92-24.05L523.92-24.05Q527.29-24.05 529.89-23.29 532.49-22.53 534.25-21.13 536.01-19.73 536.91-17.74 537.81-15.75 537.81-13.28L537.81-13.28Q537.81-9.99 536.29-7.41 534.76-4.83 531.94-3.06 529.12-1.29 525.14-0.38 521.16 0.54 516.28 0.54L516.28 0.54Q513.06 0.54 509.98 0.13 506.9-0.27 504.08-1.01 501.26-1.76 498.71-2.8 496.16-3.83 493.99-5.08L493.99-5.08ZM546.33 0L546.33-38.16 554.07-38.16 554.07-18.41 574.21-38.16 584.12-38.16 565.32-19.95 584.12 0 573.82 0 559.76-14.55 554.07-9.06 554.07 0 546.33 0Z" opacity="1" transform="matrix(1,0,0,1,0,0)" fill="#0074d9" class="undefined-text-1" data-fill-palette-color="secondary" id="text-1"></path></svg></g></svg></g></svg></g></svg></g><g transform="matrix(1,0,0,1,419.3353707562074,0)"><svg viewBox="0 0 194.07087494240204 194.07087494240204" height="194.07087494240204" width="194.07087494240204"><g data-palette-color="#b2fcfb"><rect width="53.04603915092323" height="194.07087494240204" fill="#b2fcfb" stroke="transparent" data-fill-palette-color="accent" x="0" fill-opacity="1"></rect><rect width="53.04603915092323" height="194.07087494240204" fill="#b2fcfb" stroke="transparent" data-fill-palette-color="accent" x="64.69029164746735" fill-opacity="0.75"></rect><rect width="53.04603915092323" height="194.07087494240204" fill="#b2fcfb" stroke="transparent" data-fill-palette-color="accent" x="129.3805832949347" fill-opacity="0.5"></rect></g></svg></g></svg></g><defs></defs></svg><rect width="395.52" height="125.13552477738142" fill="none" stroke="none" visibility="hidden"></rect></g></svg></g></svg>